<svg width="20" height="20" viewBox="0 0 20 20" fill="none" xmlns="http://www.w3.org/2000/svg">
<path d="M14.1667 2.5H5.83333C3.99238 2.5 2.5 3.99238 2.5 5.83333V14.1667C2.5 16.0076 3.99238 17.5 5.83333 17.5H14.1667C16.0076 17.5 17.5 16.0076 17.5 14.1667V5.83333C17.5 3.99238 16.0076 2.5 14.1667 2.5Z" stroke="black" stroke-linejoin="round"/>
<path d="M10 13.3334C11.841 13.3334 13.3333 11.841 13.3333 10.0001C13.3333 8.15912 11.841 6.66675 10 6.66675C8.15905 6.66675 6.66667 8.15912 6.66667 10.0001C6.66667 11.841 8.15905 13.3334 10 13.3334Z" stroke="black" stroke-linejoin="round"/>
<path d="M14.5833 6.24992C15.0436 6.24992 15.4167 5.87684 15.4167 5.41659C15.4167 4.95634 15.0436 4.58325 14.5833 4.58325C14.1231 4.58325 13.75 4.95634 13.75 5.41659C13.75 5.87684 14.1231 6.24992 14.5833 6.24992Z" fill="black"/>
</svg>
