<svg width="20" height="20" viewBox="0 0 20 20" fill="none" xmlns="http://www.w3.org/2000/svg">
<path d="M8.89917 7.97502C6.44558 7.85665 4.74008 8.73144 3.78266 10.5994C2.34654 13.4013 3.53344 17.9861 8.3245 17.9861C13.1156 17.9861 13.2542 13.3565 13.2542 12.8715C13.2542 12.5481 13.2542 10.7402 13.2542 7.44781C14.2789 8.09685 15.1429 8.48756 15.8462 8.61994C16.5494 8.75227 16.9965 8.81094 17.1874 8.7959V6.09769C16.5369 6.01927 15.9744 5.86977 15.4999 5.64927C14.788 5.31852 13.3765 4.40052 13.3765 3.0551C13.3775 3.06167 13.3775 2.71462 13.3765 2.01392H10.4107C10.4019 8.60394 10.4019 12.2231 10.4107 12.8715C10.424 13.844 9.6695 15.2044 8.13979 15.2044C6.61008 15.2044 5.85563 13.8451 5.85563 12.9684C5.85563 12.4316 6.04 11.6536 6.80213 11.0775C7.25408 10.7358 7.88138 10.5994 8.89917 10.5994C8.89917 10.2846 8.89917 9.40977 8.89917 7.97502Z" stroke="black" stroke-linejoin="round"/>
</svg>
