<svg width="20" height="20" viewBox="0 0 20 20" fill="none" xmlns="http://www.w3.org/2000/svg">
<path d="M4.60987 4.33941C6.91954 4.22429 8.71596 4.16675 9.99917 4.16675C11.2825 4.16675 13.0796 4.22433 15.3904 4.33946C16.6413 4.40179 17.653 5.38004 17.7573 6.62808C17.863 7.89225 17.9158 9.00566 17.9158 9.96833C17.9158 10.9428 17.8617 12.0717 17.7534 13.3552C17.6494 14.5877 16.6597 15.5589 15.4254 15.6396C13.4498 15.7688 11.6411 15.8334 9.99917 15.8334C8.3575 15.8334 6.54942 15.7688 4.57492 15.6397C3.34105 15.559 2.35154 14.5884 2.24703 13.3563C2.13736 12.0633 2.08252 10.934 2.08252 9.96833C2.08252 9.01429 2.13604 7.9005 2.2431 6.62691C2.34797 5.37937 3.35947 4.40175 4.60987 4.33941Z" stroke="black" stroke-linejoin="round"/>
<path d="M8.75 8.17042V11.8358C8.75 12.033 8.90992 12.1929 9.10712 12.1929C9.17717 12.1929 9.24567 12.1723 9.30408 12.1337L12.0531 10.3168C12.2176 10.208 12.2628 9.98646 12.1541 9.82192C12.1281 9.78259 12.0945 9.7488 12.0554 9.72246L9.30642 7.87405C9.14275 7.76396 8.92083 7.80746 8.81075 7.97113C8.77117 8.03005 8.75 8.09942 8.75 8.17042Z" stroke="black" stroke-linejoin="round"/>
</svg>
